<svg width="20" height="20" viewBox="0 0 20 20" fill="none" xmlns="http://www.w3.org/2000/svg">
<g id="Icon">
<path id="Vector" d="M17.4999 11.0333V16.6667H18.3333V18.3333H1.66659V16.6667H2.49992V11.0333C1.9777 10.6889 1.56936 10.2389 1.27492 9.68334C0.980474 9.12779 0.833252 8.5389 0.833252 7.91668C0.833252 7.21668 1.01103 6.57779 1.36659 6.00001L3.61659 2.08334C3.69436 1.95001 3.79714 1.84723 3.92492 1.77501C4.0527 1.70279 4.19436 1.66668 4.34992 1.66668H15.6666C15.811 1.66668 15.9471 1.70279 16.0749 1.77501C16.2027 1.84723 16.3055 1.95001 16.3833 2.08334L18.6333 5.98334C18.9666 6.55001 19.1444 7.15557 19.1666 7.80001C19.1888 8.44445 19.0527 9.05279 18.7583 9.62501C18.4638 10.1972 18.0444 10.6667 17.4999 11.0333ZM15.8333 11.65C15.2555 11.7056 14.6916 11.6361 14.1416 11.4417C13.5916 11.2472 13.1166 10.9389 12.7166 10.5167C12.361 10.8833 11.9471 11.1667 11.4749 11.3667C11.0027 11.5667 10.511 11.6667 9.99992 11.6667C9.48881 11.6667 8.99714 11.5667 8.52492 11.3667C8.0527 11.1667 7.64436 10.8833 7.29992 10.5167C6.88881 10.9389 6.40825 11.25 5.85825 11.45C5.30825 11.65 4.74436 11.7167 4.16659 11.65V16.6667H15.8333V11.65ZM4.81659 3.33334L2.79992 6.85001C2.58881 7.35001 2.58047 7.85557 2.77492 8.36668C2.96936 8.87779 3.31103 9.25279 3.79992 9.49168C4.28881 9.73057 4.79436 9.77501 5.31659 9.62501C5.83881 9.47501 6.23881 9.16112 6.51659 8.68334C6.60547 8.46112 6.75547 8.30834 6.96659 8.22501C7.1777 8.14168 7.39159 8.14168 7.60825 8.22501C7.82492 8.30834 7.9777 8.46112 8.06659 8.68334C8.22214 9.08334 8.4777 9.40279 8.83325 9.64168C9.18881 9.88057 9.5777 10 9.99992 10C10.4221 10 10.811 9.88057 11.1666 9.64168C11.5221 9.40279 11.7777 9.08334 11.9333 8.68334C12.0221 8.46112 12.1721 8.30834 12.3833 8.22501C12.5944 8.14168 12.8083 8.14168 13.0249 8.22501C13.2416 8.30834 13.3944 8.46112 13.4833 8.68334C13.6277 9.05001 13.8583 9.35001 14.1749 9.58334C14.4916 9.81668 14.8444 9.95001 15.2333 9.98334C15.6221 10.0167 15.9916 9.94445 16.3416 9.76668C16.6916 9.5889 16.9694 9.33612 17.1749 9.00834C17.3805 8.68056 17.486 8.31945 17.4916 7.92501C17.4971 7.53057 17.3999 7.16668 17.1999 6.83334L15.1833 3.33334H4.83325H4.81659Z" fill="white"/>
</g>
</svg>
